<svg id="color" xmlns="http://www.w3.org/2000/svg" viewBox="0 0 296.91 241.92"><defs><style>.cls-1{fill:#6f6b89;}.cls-2{fill:#d3d3d3;}.cls-3{fill:#fff;}.cls-4{fill:#082245;}.cls-5{fill:#de6b48;}.cls-6{fill:none;stroke:#000;}</style></defs><path class="cls-1" d="M329.49,443.53l-.19-.06a187.31,187.31,0,0,1-20-5.42c16.29,4.53,49.13-.37,49.13-.37-6.07-21.24-17.73-38.53-19.92-41.65l14.62,12.28q.83.75,1.65,1.53c9.12,7.55,19.13,15.2,30.1,22.73a418.4,418.4,0,0,0,81.6,43.53c-.72,1.44-1.45,2.87-2.18,4.31a293,293,0,0,0-81.21-32c1.36,1.21,3.44,3,6.05,5,12.42,9.67,22.85,14.12,35.25,19.81,7.81,3.58,19.46,9.06,34.07,16.45l-2.52,4.19c-16.93-8.95-35.85-18-56.73-26.52A635.34,635.34,0,0,0,329.49,443.53Z" transform="translate(-170.25 -254.93)"/><path class="cls-1" d="M386.56,261.54C402,307,386,354,364,395c-3,5-7,10-9.2,14.72l-1.68-1.41c-5.35-4.94-10.34-9.16-15-12.77l0,0c-1-.76-1.92-1.48-2.85-2.19a129.71,129.71,0,0,0,12.56-31,131.07,131.07,0,0,0,3.09-49.81c0-.05,0-.1,0-.15s26.34-32,33.51-55.94Z" transform="translate(-170.25 -254.93)"/><path class="cls-1" d="M353.12,408.31,338.5,396h0c-.17-.26-.29-.42-.33-.48C342.78,399.15,347.77,403.37,353.12,408.31Z" transform="translate(-170.25 -254.93)"/><path class="cls-2" d="M350.94,312.51a131.07,131.07,0,0,1-3.09,49.81,129.71,129.71,0,0,1-12.56,31c-28.21-21.21-41.86-19-41.86-19-1.55-.95-3.05-1.84-4.5-2.64a191.2,191.2,0,0,1,61.83-59.19Z" transform="translate(-170.25 -254.93)"/><path class="cls-3" d="M338.5,396c2.19,3.12,13.85,20.41,19.92,41.65,0,0-32.84,4.9-49.13.37h-.05a128.91,128.91,0,0,1-14.08-5.61c-24.88-11.77-28-25-28-25,18.63,6,31.34-1.39,31.34-1.39,2-28.7-5-31.72-5-31.72s13.65-2.24,41.86,19l3.2,2.69Z" transform="translate(-170.25 -254.93)"/><path class="cls-1" d="M338.49,396l-3.2-2.69c.93.71,1.88,1.43,2.85,2.19l0,0C338.2,395.6,338.32,395.76,338.49,396Z" transform="translate(-170.25 -254.93)"/><path class="cls-1" d="M329.3,443.47l.19.06a158.23,158.23,0,0,1-27.82,22.18c-19,12.13-41.19,20-63.08,24.84a255.87,255.87,0,0,1-66.76,5.53l12-7.85C193,482,201,475,207,466c1.43-2.09,2.85-4.15,4.28-6.17l2-.49a161.8,161.8,0,0,0,81.89-26.91A128.91,128.91,0,0,0,309.24,438h.05A187.31,187.31,0,0,0,329.3,443.47Z" transform="translate(-170.25 -254.93)"/><path class="cls-4" d="M293.43,374.36s7.05,3,5,31.72c0,0-12.71,7.43-31.34,1.39,0,0-1.83-.42-5.33-3.05a51.34,51.34,0,0,1-5.13-4.46c21.77,13,24.56,1.8,24.56,1.8,3.86-22-17.63-21.48-17.63-21.48-2.35-16.45-16.2-8.34-16.2-8.34a25.08,25.08,0,0,0,1.6-3s8.85-14.59,39.94,2.77C290.38,372.52,291.88,373.41,293.43,374.36Z" transform="translate(-170.25 -254.93)"/><path class="cls-5" d="M263.59,380.28s21.49-.5,17.63,21.48c0,0-2.79,11.17-24.56-1.8a109.12,109.12,0,0,1-11.19-13.13s-3-3.53-11.58-2.52c0,0,8.54-4.42,13.5-12.37C247.39,371.94,261.24,363.83,263.59,380.28Z" transform="translate(-170.25 -254.93)"/><path class="cls-2" d="M295.16,432.43a161.8,161.8,0,0,1-81.89,26.91l-2,.49C224.9,440.59,238.9,424.48,257,410c2-2,3-4,4.79-5.58,3.5,2.63,5.33,3.05,5.33,3.05S270.28,420.66,295.16,432.43Z" transform="translate(-170.25 -254.93)"/><path class="cls-6" d="M247.39,371.94a25.08,25.08,0,0,0,1.6-3s8.85-14.59,39.94,2.77c1.45.8,2.95,1.69,4.5,2.64" transform="translate(-170.25 -254.93)"/><path class="cls-6" d="M261.79,404.42a51.34,51.34,0,0,1-5.13-4.46" transform="translate(-170.25 -254.93)"/><path class="cls-6" d="M247.39,371.94s13.85-8.11,16.2,8.34c0,0,21.49-.5,17.63,21.48,0,0-2.79,11.17-24.56-1.8a109.12,109.12,0,0,1-11.19-13.13s-3-3.53-11.58-2.52C233.89,384.31,242.43,379.89,247.39,371.94Z" transform="translate(-170.25 -254.93)"/><path class="cls-6" d="M350.76,312.53a191.2,191.2,0,0,0-61.83,59.19" transform="translate(-170.25 -254.93)"/><path class="cls-6" d="M329.49,443.53a158.23,158.23,0,0,1-27.82,22.18c-19,12.13-41.19,20-63.08,24.84a255.87,255.87,0,0,1-66.76,5.53l12-7.85C193,482,201,475,207,466c1.43-2.09,2.85-4.15,4.28-6.17" transform="translate(-170.25 -254.93)"/><path class="cls-6" d="M295.16,432.43a161.8,161.8,0,0,1-81.89,26.91l-2,.49C224.9,440.59,238.9,424.48,257,410c2-2,3-4,4.79-5.58,3.5,2.63,5.33,3.05,5.33,3.05" transform="translate(-170.25 -254.93)"/><path class="cls-6" d="M335.29,393.33a129.71,129.71,0,0,0,12.56-31,131.07,131.07,0,0,0,3.09-49.81c0-.05,0-.1,0-.15s26.34-32,33.51-55.94l2.13,5.12C402,307,386,354,364,395c-3,5-7,10-9.2,14.72" transform="translate(-170.25 -254.93)"/><path class="cls-6" d="M338.16,395.54c4.62,3.61,9.61,7.83,15,12.77q.83.75,1.65,1.53c9.12,7.55,19.13,15.2,30.1,22.73a418.4,418.4,0,0,0,81.6,43.53c-.72,1.44-1.45,2.87-2.18,4.31a293,293,0,0,0-81.21-32c1.36,1.21,3.44,3,6.05,5,12.42,9.67,22.85,14.12,35.25,19.81,7.81,3.58,19.46,9.06,34.07,16.45l-2.52,4.19c-16.93-8.95-35.85-18-56.73-26.52a635.34,635.34,0,0,0-69.71-23.85l-.19-.06a187.31,187.31,0,0,1-20-5.42" transform="translate(-170.25 -254.93)"/><path class="cls-6" d="M338.5,396c2.19,3.12,13.85,20.41,19.92,41.65,0,0-32.84,4.9-49.13.37h-.05a128.91,128.91,0,0,1-14.08-5.61c-24.88-11.77-28-25-28-25,18.63,6,31.34-1.39,31.34-1.39,2-28.7-5-31.72-5-31.72s13.65-2.24,41.86,19c.93.71,1.88,1.43,2.85,2.19l0,0c0,.06.16.22.33.48Z" transform="translate(-170.25 -254.93)"/></svg>